<svg xmlns="http://www.w3.org/2000/svg" xmlns:xlink="http://www.w3.org/1999/xlink" xmlns:inkscape="http://www.inkscape.org/namespaces/inkscape" version="1.1" width="841.89" height="595.276" viewBox="0 0 841.89 595.276">
<defs>
<clipPath id="clip_1">
<path transform="matrix(1,0,0,-1,0,595.276)" d="M0 595.276H841.89V0H0Z"/>
</clipPath>
</defs>
<g inkscape:groupmode="layer" inkscape:label="Calque 1">
<g clip-path="url(#clip_1)">
<path transform="matrix(1,0,0,-1,528.2666,281.3065)" d="M0 0C-2.313-27.874-9.173-47.89-21.758-48.849-26.107-49.18-29.593-46.969-32.669-39.288-34.372-35.032-35.4-28.79-35.984-24.26-37.241-15.98-37.107-5.298-36.232 5.257-34.242 29.252-27.732 46.243-19.892 51.999-16.741 53.959-14.783 54.445-11.88 53.826-2.778 51.884 2.315 27.877 0 0M-83.868-23.213C-86.17-62.967-105.518-94.716-127.573-94.112-135.439-93.896-144.446-89.797-152.895-72.347-158.707-60.093-162.032-47.321-160.328-14.453-156.57 26.335-143.87 52.304-121.167 55.224-113.79 56.01-109.003 53.833-103.684 48.837-100.118 45.484-97.416 41.36-95.098 36.906-86.912 22.953-82.568-.718-83.868-23.213M-15.562 58.441C-35.146 58.866-44.24 43.603-48.896 31.515-48.902 31.5-48.908 31.494-48.914 31.479-50.444 27.585-52.443 27.035-54.768 27.515-57.41 28.06-62.315 28.107-67.743 25.326-71.074 23.62-73.211 25.211-74.373 26.693-74.734 27.291-75.097 27.86-75.455 28.516-85.067 46.13-101.616 61.486-124.402 60.255-147.189 59.024-180.484 39.19-188.879-10.77-188.879-10.77-188.907-11.015-188.993-11.44-190.35-18.124-196.752-22.544-203.507-21.603L-261.29-13.553C-261.961-13.46-262.561-13.981-262.561-14.66V-41.43C-262.561-42.573-261.718-43.542-260.586-43.699L-207.028-51.161C-205.105-51.501-203.227-51.765-201.412-51.942L-192.297-53.213C-190.443-53.471-188.755-54.457-187.672-55.982-186.863-57.123-186.14-58.508-185.235-60.13-184.065-62.226-183.387-63.753-182.148-66.192-181.378-67.788-180.506-69.427-179.525-71.092-179.488-71.161-179.459-71.213-179.42-71.283-179.389-71.339-179.363-71.37-179.332-71.422-171.372-84.753-156.267-99.197-128.158-98.934-82.828-98.509-70.444-34.678-66.971-10.557-66.971-10.553-66.97-10.55-66.969-10.545-64.256 4.931-55.198 5.413-55.198 5.413-55.198 5.413-62.6-49.128-29.914-52.903 2.771-56.678 6.867-2.224 7.008 10.441 7.149 23.105 6.99 57.951-15.562 58.441" fill="#1c1c1c"/>
</g>
</g>
</svg>
