<svg xmlns="http://www.w3.org/2000/svg" xmlns:xlink="http://www.w3.org/1999/xlink" xmlns:inkscape="http://www.inkscape.org/namespaces/inkscape" version="1.1" width="841.89" height="595.276" viewBox="0 0 841.89 595.276">
<defs>
<clipPath id="clip_1">
<path transform="matrix(1,0,0,-1,0,595.276)" d="M0 595.276H841.89V0H0Z"/>
</clipPath>
</defs>
<g inkscape:groupmode="layer" inkscape:label="Calque 1">
<g clip-path="url(#clip_1)">
<path transform="matrix(1,0,0,-1,478.2305,290.5141)" d="M0 0C-1.133-13.647-4.492-23.448-10.653-23.918-12.784-24.08-14.49-22.998-15.996-19.236-16.83-17.153-17.333-14.097-17.619-11.879-18.234-7.825-18.17-2.594-17.741 2.573-16.767 14.323-13.58 22.642-9.74 25.46-8.197 26.419-7.239 26.658-5.817 26.355-1.361 25.404 1.133 13.649 0 0M-41.065-11.366C-42.191-30.831-51.665-46.376-62.464-46.08-66.315-45.975-70.726-43.968-74.862-35.424-77.708-29.424-79.336-23.171-78.501-7.077-76.662 12.895-70.443 25.61-59.328 27.04-55.716 27.424-53.372 26.358-50.768 23.912-49.021 22.27-47.698 20.251-46.563 18.07-42.556 11.238-40.428-.352-41.065-11.366M-7.62 28.614C-17.209 28.823-21.662 21.35-23.941 15.431-23.944 15.424-23.947 15.42-23.951 15.414-24.699 13.507-25.679 13.237-26.816 13.473-28.11 13.739-30.513 13.762-33.17 12.4-34.8 11.564-35.847 12.343-36.416 13.069-36.593 13.363-36.771 13.642-36.945 13.962-41.652 22.586-49.755 30.105-60.911 29.503-72.069 28.9-88.372 19.189-92.481-5.273-92.481-5.273-92.495-5.393-92.538-5.602-93.202-8.873-96.337-11.039-99.644-10.577L-124.175-7.161C-124.503-7.115-124.797-7.37-124.797-7.703V-20.811C-124.797-21.37-124.384-21.844-123.83-21.921L-101.368-25.05C-100.426-25.217-99.507-25.346-98.618-25.433L-94.156-26.055C-93.248-26.182-92.421-26.663-91.891-27.41-91.495-27.968-91.14-28.647-90.698-29.442-90.125-30.468-89.792-31.215-89.186-32.41-88.809-33.191-88.382-33.994-87.901-34.809-87.883-34.842-87.869-34.868-87.85-34.903-87.835-34.931-87.822-34.945-87.807-34.971-83.909-41.498-76.513-48.569-62.75-48.441-40.556-48.233-34.492-16.979-32.791-5.168-32.791-5.167-32.791-5.165-32.79-5.163-31.463 2.415-27.027 2.65-27.027 2.65-27.027 2.65-30.651-24.055-14.647-25.902 1.356-27.752 3.362-1.089 3.432 5.112 3.5 11.313 3.422 28.375-7.62 28.614" fill="#1c1c1c"/>
<path transform="matrix(1,0,0,-1,508.9453,355.45649)" d="M0 0C-.104 .469-.357 .83-.764 1.081-1.168 1.332-1.604 1.398-2.071 1.282-2.538 1.165-2.907 .887-3.18 .446-3.452 .007-3.534-.443-3.426-.905-3.317-1.366-3.061-1.723-2.654-1.973-2.25-2.225-1.815-2.296-1.355-2.188-.894-2.079-.527-1.805-.255-1.365 .018-.926 .103-.471 0 0" fill="#1d1d1b"/>
<path transform="matrix(1,0,0,-1,363.2085,373.86079)" d="M0 0-6.883-10.539-3.456-12.776C-1.854-13.821-.25-14.191 1.358-13.882 2.976-13.579 4.308-12.627 5.354-11.025 6.408-9.412 6.748-7.804 6.374-6.201 6.011-4.604 5.028-3.283 3.426-2.237ZM.798-3 2.291-3.975C3.298-4.632 3.889-5.489 4.064-6.546 4.224-7.576 3.962-8.617 3.276-9.668 2.604-10.696 1.764-11.344 .756-11.612-.299-11.88-1.325-11.689-2.322-11.038L-3.815-10.063ZM8.809-20.076 16.241-23.315 17.04-21.484 11.706-19.159 13.031-16.118 18.026-18.297 18.817-16.483 13.821-14.306 15.146-11.266 20.479-13.591 21.269-11.776 13.838-8.538ZM31.444-15.219 27.161-14.043 23.83-26.182 26.056-26.792 27.267-22.378 29.324-22.942C30.696-23.318 31.857-23.279 32.806-22.822 33.756-22.366 34.401-21.518 34.742-20.277 35.082-19.035 34.961-17.977 34.377-17.1 33.793-16.222 32.816-15.595 31.444-15.219M27.796-20.451 28.863-16.562 30.92-17.126C31.606-17.314 32.073-17.64 32.322-18.104 32.57-18.567 32.615-19.083 32.46-19.65 32.305-20.218 32.002-20.634 31.554-20.9 31.105-21.166 30.538-21.204 29.853-21.017ZM40.803-17.608 40.024-25.404C39.865-27 40.186-28.276 40.986-29.233 41.788-30.19 42.992-30.749 44.601-30.91 46.208-31.071 47.5-30.762 48.475-29.981 49.448-29.201 50.015-28.015 50.175-26.419L50.954-18.623 48.677-18.396 47.897-26.191C47.795-27.221 47.461-27.936 46.894-28.333 46.328-28.73 45.633-28.889 44.81-28.807 43.987-28.724 43.337-28.433 42.861-27.93 42.385-27.427 42.198-26.662 42.301-25.633L43.08-17.836ZM57.81-31.386 60.098-31.335 59.818-18.751 57.53-18.802ZM75.846-20.514C75.531-19.375 74.939-18.548 74.07-18.036 73.202-17.523 72.069-17.388 70.674-17.628 69.279-17.868 68.227-18.371 67.519-19.137 66.82-19.873 66.559-20.758 66.737-21.79 66.889-22.669 67.262-23.313 67.858-23.723 68.454-24.132 69.26-24.438 70.28-24.643L72.914-25.192C73.496-25.302 73.929-25.453 74.212-25.647 74.495-25.841 74.674-26.158 74.75-26.598 74.826-27.037 74.663-27.426 74.262-27.764 73.861-28.103 73.4-28.316 72.877-28.406 72.354-28.496 71.927-28.524 71.592-28.49 70.49-28.405 69.849-27.854 69.673-26.833L67.438-27.22C67.721-28.561 68.405-29.519 69.489-30.094 70.458-30.622 71.631-30.767 73.007-30.529 74.562-30.262 75.704-29.727 76.431-28.925 77.158-28.124 77.425-27.163 77.233-26.042 77.091-25.227 76.726-24.591 76.135-24.135 75.545-23.679 74.761-23.352 73.782-23.153L70.906-22.567C70.378-22.474 69.978-22.344 69.707-22.174 69.434-22.004 69.266-21.735 69.203-21.365 69.139-20.996 69.266-20.648 69.583-20.324 69.902-20.002 70.386-19.782 71.036-19.672 72.361-19.442 73.219-19.852 73.61-20.9ZM89.967-16.409C90.593-16.164 91.155-15.771 91.652-15.23L95.263-24.48 97.394-23.648 92.79-11.852 91.181-12.479C90.692-13.253 90.022-13.882 89.17-14.367ZM100.107-9.634C99.682-10.59 99.734-11.526 100.265-12.444 100.471-12.803 100.717-13.086 101.001-13.295 101.783-13.845 102.795-14.072 104.042-13.979 103.354-14.496 102.894-15.102 102.662-15.797 102.428-16.491 102.508-17.18 102.903-17.863 103.44-18.792 104.296-19.306 105.472-19.401 106.672-19.516 107.961-19.174 109.337-18.378 110.771-17.551 111.739-16.603 112.242-15.535 112.718-14.499 112.688-13.516 112.152-12.586 111.762-11.915 111.226-11.479 110.542-11.275 109.964-11.102 109.104-11.099 107.961-11.267 108.595-10.736 108.975-10.146 109.102-9.499 109.228-8.852 109.132-8.253 108.815-7.704 108.292-6.798 107.45-6.287 106.293-6.172 105.137-6.056 103.923-6.365 102.652-7.099 101.381-7.834 100.534-8.678 100.107-9.634M108.293-13.315C108.736-13.253 109.117-13.261 109.437-13.337 109.758-13.412 110.01-13.611 110.195-13.93 110.378-14.249 110.324-14.639 110.031-15.1 109.737-15.561 109.185-16.025 108.373-16.494 107.561-16.963 106.854-17.193 106.25-17.184 105.938-17.185 105.66-17.129 105.416-17.017 105.171-16.903 104.984-16.735 104.855-16.511 104.725-16.287 104.663-16.062 104.666-15.836 104.688-15.047 105.188-14.325 106.169-13.669ZM102.405-11.42C102.163-11 102.18-10.554 102.458-10.078 102.737-9.604 103.19-9.187 103.817-8.823 104.466-8.448 105.068-8.275 105.624-8.306 106.178-8.336 106.582-8.569 106.834-9.006 107.086-9.442 107.094-9.908 106.858-10.403 106.61-10.904 106.217-11.311 105.68-11.621L104.14-11.862C103.226-11.987 102.648-11.839 102.405-11.42M121.56 1.33C120.826 2.167 119.936 2.605 118.892 2.648 117.867 2.689 116.859 2.314 115.869 1.522 114.566 .482 113.9-.797 113.869-2.311 113.841-3.871 114.5-5.49 115.839-7.167 116.994-8.611 118.332-9.486 119.851-9.794 121.372-10.103 122.749-9.763 123.98-8.778 125.041-7.93 125.668-6.956 125.865-5.855 126.061-4.755 125.789-3.74 125.044-2.812 124.302-1.882 123.413-1.369 122.374-1.271 121.31-1.163 120.325-1.472 119.415-2.197 118.708-2.763 118.254-3.406 118.054-4.13 117.833-4.97 118.012-5.868 118.595-6.826 118.388-6.627 118.11-6.312 117.763-5.877 116.827-4.706 116.305-3.6 116.201-2.558 116.157-2.046 116.218-1.579 116.384-1.156 116.551-.733 116.839-.358 117.249-.031 117.658 .296 118.068 .438 118.483 .397 118.897 .355 119.286 .158 119.652-.196ZM121.689-3.459C122.274-3.487 122.757-3.738 123.137-4.213 123.517-4.687 123.651-5.196 123.54-5.741 123.428-6.285 123.132-6.749 122.653-7.133 122.173-7.517 121.658-7.7 121.108-7.686 120.558-7.669 120.093-7.425 119.713-6.949 119.333-6.476 119.193-5.963 119.292-5.412 119.389-4.862 119.68-4.394 120.166-4.006 120.65-3.618 121.158-3.436 121.689-3.459M129.545 10.649C130.025 10.688 130.454 10.533 130.833 10.182 131.212 9.83 131.376 9.394 131.328 8.876 131.278 8.356 131.002 7.827 130.501 7.287L129.525 6.235 130.847 5.009 131.982 6.23C132.58 6.875 133.131 7.241 133.636 7.328 134.14 7.416 134.594 7.272 134.997 6.898 135.399 6.524 135.58 6.054 135.536 5.485 135.493 4.916 135.2 4.338 134.654 3.75 134.108 3.163 133.528 2.814 132.915 2.704 132.301 2.595 131.741 2.751 131.23 3.17L129.568 1.38C130.525 .491 131.663 .176 132.98 .436 134.17 .653 135.249 1.283 136.216 2.326 137.228 3.416 137.79 4.544 137.902 5.709 137.955 6.261 137.892 6.782 137.714 7.274 137.535 7.766 137.204 8.236 136.721 8.686 136.238 9.135 135.653 9.363 134.966 9.375 134.28 9.386 133.582 9.2 132.873 8.817 133.168 9.477 133.263 10.096 133.154 10.673 133.046 11.25 132.755 11.758 132.282 12.197 131.523 12.901 130.594 13.146 129.496 12.933 128.432 12.736 127.43 12.132 126.489 11.118 125.575 10.133 125.048 9.139 124.913 8.137 124.779 7.061 125.122 6.054 125.944 5.114L127.58 6.877C126.952 7.777 127.118 8.744 128.077 9.777 128.578 10.318 129.067 10.608 129.545 10.649" fill="#1d1d1b"/>
<path transform="matrix(1,0,0,-1,348.9795,218.08539)" d="M0 0C-.058-1.547 .565-3.124 1.871-4.729 3.161-6.312 4.566-7.252 6.089-7.547 7.585-7.83 8.981-7.445 10.274-6.392 11.489-5.404 12.201-4.33 12.413-3.166 12.625-2.002 12.286-.873 11.396 .22L9.485-1.334C9.917-1.866 10.095-2.442 10.017-3.063 9.94-3.686 9.555-4.277 8.863-4.841 8.17-5.403 7.374-5.541 6.47-5.249 5.567-4.959 4.669-4.265 3.775-3.167 2.882-2.068 2.408-1.025 2.354-.035 2.311 .878 2.629 1.613 3.312 2.168 3.813 2.577 4.36 2.759 4.953 2.716 5.546 2.674 6.131 2.462 6.707 2.082L8.321 3.969C7.38 4.736 6.386 5.12 5.337 5.117 4.805 5.116 4.258 5.01 3.698 4.796 3.139 4.583 2.559 4.231 1.957 3.741 .713 2.73 .06 1.483 0 0M19.651 14.392C18.577 14.582 17.4 14.298 16.121 13.54L12.116 11.168 18.531 .339 20.5 1.504 18 5.726 19.501 6.616 24.388 3.808 26.958 5.331 21.445 8.015C22.132 8.708 22.531 9.455 22.642 10.257 22.753 11.059 22.581 11.844 22.126 12.611 21.526 13.624 20.701 14.217 19.651 14.392M17.218 7.044 15.094 10.632 17.129 11.838C17.796 12.233 18.394 12.366 18.922 12.236 19.451 12.105 19.875 11.77 20.194 11.23 20.514 10.69 20.588 10.149 20.414 9.602 20.242 9.057 19.794 8.571 19.071 8.142ZM27.371 19.63 34.96 22.478 35.656 20.626 30.208 18.581 31.374 15.477 36.477 17.392 37.171 15.54 32.068 13.625 33.234 10.52 38.681 12.564 39.383 10.694 31.794 7.845ZM31.506 26.381 27.558 22.165 28.607 21.025 32.964 24.815ZM43.902 12.549 46.275 13.047 46.589 15.889 51.163 16.85 52.576 14.373 54.948 14.872 48.315 26.339 45.506 25.748ZM47.436 23.359 50.257 18.423 46.803 17.698ZM56.778 26.05 60.664 26.366 61.524 15.792 63.805 15.978 62.945 26.551 66.83 26.867 66.669 28.84 56.618 28.021ZM72.522 16.45 80.609 15.897 80.746 17.891 74.941 18.286 75.167 21.596 80.604 21.225 80.739 23.199 75.302 23.569 75.527 26.877 81.332 26.482 81.467 28.456 73.379 29.008ZM89.47 27.646 87.612 20.033C87.232 18.476 87.373 17.167 88.033 16.108 88.693 15.048 89.808 14.328 91.379 13.945 92.947 13.562 94.271 13.689 95.343 14.325 96.417 14.961 97.144 16.059 97.523 17.616L99.38 25.229 97.157 25.771 95.3 18.158C95.056 17.154 94.624 16.494 94.009 16.178 93.394 15.862 92.683 15.802 91.879 15.999 91.075 16.195 90.473 16.574 90.07 17.138 89.669 17.703 89.591 18.486 89.837 19.491L91.692 27.103ZM114.418 18.765C113.939 19.746 113.018 20.531 111.652 21.121L107.38 22.965 102.392 11.408 104.492 10.501 106.437 15.006 108.039 14.315 108.642 8.711 111.383 7.528 110.313 13.565C111.277 13.417 112.117 13.534 112.83 13.916 113.545 14.297 114.078 14.898 114.433 15.716 114.898 16.797 114.894 17.812 114.418 18.765M107.044 16.414 108.696 20.242 110.869 19.304C111.581 18.996 112.039 18.59 112.244 18.087 112.449 17.583 112.428 17.042 112.18 16.468 111.931 15.892 111.534 15.513 110.991 15.332 110.449 15.15 109.792 15.228 109.021 15.56ZM131.143 11.039 123.564 .988 126.831-1.475C128.359-2.627 129.936-3.103 131.561-2.903 133.195-2.712 134.588-1.852 135.74-.323 136.9 1.214 137.348 2.795 137.083 4.42 136.829 6.037 135.938 7.422 134.41 8.574ZM131.737 7.991 133.161 6.917C134.121 6.193 134.652 5.299 134.756 4.233 134.847 3.193 134.514 2.172 133.758 1.171 133.02 .19 132.137-.399 131.112-.599 130.041-.795 129.031-.534 128.081 .181L126.657 1.256ZM136.268-8.93 141.829-14.829 143.282-13.458 139.291-9.225 141.704-6.95 145.443-10.915 146.882-9.558 143.143-5.593 145.557-3.317 149.547-7.55 150.987-6.193 145.425-.296ZM164.892-27.486C165.108-26.417 164.854-25.232 164.129-23.936L161.856-19.873 150.871-26.016 151.988-28.014 156.271-25.619 157.122-27.142 154.193-31.958 155.651-34.564 158.473-29.12C159.147-29.824 159.886-30.241 160.685-30.373 161.482-30.503 162.271-30.351 163.051-29.916 164.078-29.341 164.691-28.532 164.892-27.486M157.607-24.871 161.247-22.836 162.402-24.901C162.78-25.579 162.897-26.179 162.755-26.704 162.61-27.229 162.265-27.644 161.719-27.95 161.171-28.256 160.627-28.316 160.086-28.129 159.544-27.943 159.069-27.483 158.658-26.75ZM158.239-39.534 161.088-47.124 162.959-46.422 160.913-40.975 164.019-39.81 165.934-44.911 167.786-44.216 165.871-39.115 168.976-37.949 171.021-43.396 172.872-42.701 170.023-35.112ZM164.774-60.777 165.158-62.599 171.498-61.266 170.464-56.35 169.021-56.654 169.547-59.437 169.471-59.453C168.548-59.647 167.765-59.534 167.12-59.114 166.492-58.705 166.095-58.095 165.923-57.286 165.724-56.336 165.956-55.494 166.622-54.761 167.296-54.01 168.272-53.501 169.551-53.232 170.904-52.948 172.055-53.043 173-53.518 173.927-53.971 174.489-54.665 174.686-55.602 174.902-56.627 174.542-57.587 173.607-58.484L174.622-60.668C175.604-60 176.264-59.224 176.6-58.34 176.936-57.457 176.982-56.44 176.741-55.288 176.384-53.593 175.517-52.328 174.141-51.495 172.717-50.632 171.019-50.407 169.044-50.822 167.172-51.216 165.743-52.058 164.759-53.348 163.806-54.593 163.49-55.986 163.814-57.53 164.132-59.036 165.087-59.898 166.679-60.12ZM166.175-67.203 166.25-69.627 168.992-70.433 169.138-75.105 166.451-76.062 166.526-78.485 178.979-73.963 178.89-71.095ZM176.199-72.576 170.846-74.489 170.736-70.961ZM177.053-93.077C177.856-92.338 178.345-91.23 178.519-89.754L179.063-85.131 166.563-83.657 166.296-85.931 171.169-86.505 170.965-88.238 165.767-90.419 165.417-93.385 170.896-90.633C171.03-91.599 171.382-92.368 171.952-92.944 172.522-93.52 173.25-93.858 174.137-93.964 175.305-94.101 176.277-93.805 177.053-93.077M172.69-86.685 176.832-87.173 176.554-89.521C176.463-90.293 176.206-90.849 175.782-91.188 175.357-91.529 174.834-91.663 174.212-91.59 173.588-91.516 173.113-91.245 172.784-90.777 172.454-90.309 172.34-89.657 172.438-88.822ZM176.666-102.38 164.596-98.812 163.436-102.735C162.893-104.57 163.001-106.213 163.758-107.664 164.512-109.127 165.806-110.13 167.641-110.673 169.487-111.22 171.126-111.084 172.555-110.265 173.979-109.46 174.963-108.14 175.505-106.305ZM174.021-104.005 173.516-105.717C173.175-106.869 172.523-107.682 171.562-108.151 170.62-108.601 169.548-108.648 168.345-108.292 167.167-107.944 166.306-107.325 165.759-106.436 165.199-105.501 165.088-104.464 165.426-103.323L165.932-101.612ZM164.214-126.201C165.33-126.588 166.348-126.567 167.263-126.143 168.176-125.716 168.93-124.86 169.521-123.574 170.113-122.288 170.295-121.137 170.065-120.12 169.854-119.126 169.272-118.41 168.321-117.972 167.511-117.599 166.77-117.542 166.095-117.802 165.42-118.061 164.709-118.551 163.963-119.275L162.019-121.135C161.599-121.553 161.229-121.824 160.909-121.947 160.588-122.07 160.227-122.038 159.82-121.853 159.416-121.665 159.187-121.312 159.136-120.79 159.084-120.268 159.169-119.767 159.391-119.285 159.612-118.803 159.832-118.435 160.05-118.178 160.745-117.317 161.562-117.103 162.502-117.535L163.451-115.475C162.185-114.948 161.008-114.969 159.921-115.535 158.937-116.037 158.152-116.921 157.568-118.189 156.908-119.622 156.702-120.865 156.95-121.919 157.198-122.973 157.839-123.738 158.873-124.213 159.625-124.559 160.355-124.617 161.065-124.39 161.775-124.162 162.489-123.7 163.208-123.006L165.32-120.968C165.695-120.585 166.03-120.33 166.323-120.202 166.617-120.073 166.935-120.089 167.274-120.245 167.616-120.401 167.829-120.703 167.916-121.148 168.003-121.594 167.908-122.116 167.633-122.715 167.07-123.937 166.246-124.411 165.163-124.141Z" fill="#1d1d1b"/>
<path transform="matrix(1,0,0,-1,330.8286,350.7846)" d="M0 0C-1.366-.025-2.491 .441-3.29 1.427-4.092 2.417-4.57 3.597-4.549 4.922-4.524 6.662-3.778 8.084-2.556 9.253-1.246 10.506 .322 11.347 2.098 11.715 4.234 12.159 6.238 11.817 7.765 10.15 8.994 8.811 9.665 7.307 8.802 5.253 8.765 5.162 8.718 5.076 8.675 4.989 8.785 5.02 8.905 5.033 9.004 5.085 10.761 6.008 12.515 6.937 14.272 7.859 15.033 8.26 14.916 8.316 15.344 7.512 15.867 6.523 16.391 5.535 16.907 4.544 17.16 4.058 17.145 4.006 16.652 3.742 15.581 3.167 14.502 2.604 13.428 2.038 9.282-.15 5.132-2.333 .99-4.528 .086-5.008 .149-4.883-.228-4.169-.656-3.354-1.089-2.544-1.513-1.729-1.809-1.16-1.794-1.154-1.231-.81-.812-.554-.409-.271 0 0M1.829 6.348C.891 5.956-.001 5.293-.85 4.577-1.415 4.103-1.915 3.556-2.235 2.867-2.539 2.215-2.482 1.338-1.729 .938-.885 .493 .017 .355 .899 .812 2.989 1.893 5.061 3.006 7.146 4.098 7.927 4.507 8.379 5.184 8.547 6 8.747 6.981 8.362 7.663 7.252 7.849 6.823 7.921 6.365 7.898 5.931 7.84 4.494 7.649 3.173 7.114 1.829 6.348" fill="#1d1d1b"/>
<path transform="matrix(1,0,0,-1,328.2969,335.5502)" d="M0 0C-1.855-.705-3.711-1.412-5.566-2.117-5.729-2.178-5.896-2.23-6.053-2.304-6.332-2.435-6.463-2.308-6.546-2.054-6.607-1.864-6.685-1.681-6.755-1.494-7.126-.519-7.501 .455-7.868 1.434-8.073 1.982-8.052 2.03-7.489 2.245-5.775 2.903-4.057 3.553-2.341 4.206-.254 4.999 1.834 5.793 3.921 6.586 4.083 6.647 4.25 6.701 4.408 6.772 4.647 6.88 4.776 6.788 4.86 6.561 5.013 6.14 5.177 5.724 5.335 5.306 5.645 4.492 5.959 3.681 6.26 2.864 6.412 2.454 6.407 2.439 5.984 2.277 4.13 1.566 2.273 .863 .417 .158 .279 .105 .14 .053 0 0" fill="#1d1d1b"/>
<path transform="matrix(1,0,0,-1,316.5259,334.7406)" d="M0 0C1.318 .586 2.765-.097 3.266-1.459 3.574-2.296 3.614-3.105 3.094-3.86 2.519-4.696 1.699-5.092 .688-4.986-.292-4.885-.904-4.283-1.283-3.397-1.524-2.836-1.651-2.256-1.489-1.664-1.269-.86-.814-.236 0 0" fill="#1d1d1b"/>
<path transform="matrix(1,0,0,-1,321.8213,312.5844)" d="M0 0C1.964 .427 3.927 .856 5.891 1.28 7.074 1.536 8.24 1.524 9.381 1.06 10.669 .536 11.624-.377 12.37-1.519 12.996-2.476 13.463-3.504 13.692-4.64 13.901-5.684 14.165-6.713 14.047-7.797 13.954-8.663 13.796-9.509 13.46-10.314 13.414-10.426 13.333-10.525 13.258-10.621 13.238-10.646 13.164-10.652 13.133-10.636 13.073-10.601 12.987-10.545 12.983-10.492 12.975-10.402 13.012-10.301 13.048-10.213 13.665-8.739 13.746-7.22 13.252-5.717 12.644-3.871 11.138-2.846 9.082-2.952 8.102-3.004 7.131-3.263 6.157-3.431 6.11-3.438 6.065-3.466 6.02-3.484 6.059-3.535 6.087-3.615 6.138-3.634 6.737-3.851 7.232-4.21 7.625-4.705 8.206-5.436 8.528-6.247 8.625-7.196 8.725-8.165 8.607-9.057 8.243-9.947 7.723-11.225 6.781-12.123 5.64-12.799 4.706-13.351 3.686-13.753 2.602-13.927 .975-14.187-.639-14.203-2.186-13.498-3.714-12.801-4.748-11.672-5.158-10.022-5.277-9.544-5.389-9.05-5.404-8.56-5.438-7.341-4.895-6.37-3.989-5.586-3.944-5.548-3.933-5.471-3.905-5.411-3.97-5.393-4.037-5.348-4.097-5.357-4.538-5.422-4.976-5.527-5.419-5.559-5.945-5.599-5.955-5.573-6.065-5.079-6.297-4.036-6.525-2.992-6.747-1.947-6.839-1.507-6.832-1.492-6.399-1.396-4.946-1.073-3.49-.76-2.036-.443-1.358-.296-.679-.147 0 0M.917-4.569C-.196-4.811-1.312-5.043-2.421-5.299-3.285-5.498-3.93-6.028-4.383-6.768-4.861-7.549-4.62-8.428-3.86-8.876-3.379-9.16-2.854-9.278-2.313-9.343-1.102-9.488 .101-9.348 1.287-9.146 2.158-8.997 3.016-8.729 3.853-8.44 4.5-8.218 5.122-7.908 5.723-7.578 6.266-7.278 6.739-6.876 7.047-6.312 7.368-5.725 7.369-5.302 6.928-4.814 6.217-4.027 5.291-3.694 4.261-3.856 3.137-4.034 2.032-4.326 .917-4.569" fill="#1d1d1b"/>
<path transform="matrix(1,0,0,-1,319.9302,298.3715)" d="M0 0C.051-1.341 .103-2.683 .152-4.023 .16-4.231 .154-4.424 .456-4.41 2.083-4.337 3.661-4.057 4.994-3.051 6.602-1.839 6.758-.705 6.429 1.004 6.274 1.811 5.906 2.546 5.392 3.198 5.285 3.334 5.177 3.471 5.091 3.621 5.067 3.662 5.109 3.756 5.145 3.81 5.159 3.834 5.254 3.84 5.281 3.817 5.446 3.67 5.632 3.534 5.759 3.355 6.626 2.149 7.163 .811 7.329-.674 7.365-.991 7.47-1.305 7.477-1.622 7.526-3.631 7.142-5.525 5.781-7.082 4.918-8.069 3.82-8.727 2.537-9.063 .738-9.534-1.025-9.474-2.757-8.766-4.659-7.988-5.857-6.555-6.384-4.616-6.817-3.024-6.87-1.382-6.312 .213-5.531 2.439-4.013 3.855-1.675 4.326-1.289 4.404-.899 4.458-.51 4.517-.249 4.556-.154 4.416-.158 4.172-.16 4.023-.147 3.875-.142 3.725-.094 2.484-.048 1.241 0 0M-.375-2.435C-.394-1.938-.408-1.442-.433-.946-.457-.448-.461-.439-.923-.458-2.159-.511-3.38-.685-4.547-1.095-5.003-1.254-5.453-1.508-5.822-1.818-6.395-2.303-6.32-3.029-5.7-3.44-5.437-3.616-5.139-3.748-4.843-3.867-4.058-4.183-3.22-4.255-2.39-4.352-1.853-4.415-1.309-4.437-.768-4.444-.313-4.45-.307-4.429-.317-3.997-.33-3.476-.355-2.956-.375-2.435" fill="#1d1d1b"/>
<path transform="matrix(1,0,0,-1,325.7241,283.122)" d="M0 0C1.113-.884 1.629-1.919 1.783-3.146 1.947-4.436 1.751-5.686 1.029-6.761 .291-7.863-.769-8.462-2.172-8.431-3.367-8.405-4.268-7.945-4.875-6.94-5.368-6.125-5.598-5.206-5.646-4.258-5.674-3.692-5.626-3.121-5.58-2.556-5.506-1.668-5.404-.782-5.313 .104-5.296 .275-5.241 .479-5.496 .507-6.551 .621-7.585 .928-8.666 .807-9.978 .657-11.053-.346-11.287-1.645-11.52-2.937-11.262-4.149-10.74-5.324-10.66-5.505-10.553-5.675-10.49-5.861-10.468-5.924-10.526-6.065-10.58-6.086-10.643-6.111-10.794-6.067-10.819-6.013-11.066-5.476-11.348-4.945-11.521-4.382-12.197-2.181-12.096 .022-11.344 2.179-10.954 3.298-10.237 4.216-9.211 4.861-8.358 5.397-7.417 5.577-6.444 5.448-3.542 5.066-.645 4.648 2.253 4.239 2.754 4.168 2.763 4.157 2.702 3.695 2.557 2.611 2.406 1.528 2.247 .447 2.18-.009 2.113-.053 1.679-.041 1.163-.026 .647-.016 0 0M-2.62 .114C-2.914 .155-3.206 .206-3.502 .234-3.887 .271-4.276 .289-4.663 .316-4.734-.069-4.8-.456-4.879-.84-4.995-1.398-4.968-1.947-4.584-2.384-4.191-2.833-3.7-3.177-3.091-3.28-2.508-3.379-1.919-3.457-1.33-3.529-.799-3.594-.298-3.442 .173-3.228 .722-2.979 1.01-2.279 .769-1.729 .387-.857-.178-.173-1.224-.077-1.691-.035-2.155 .049-2.62 .114" fill="#1d1d1b"/>
<path transform="matrix(1,0,0,-1,320.2734,268.1855)" d="M0 0C-1.282 1.109-2.063 2.46-1.85 4.261-1.833 4.407-1.859 4.559-1.836 4.704-1.813 4.844-1.788 5.012-1.58 4.999-1.39 4.985-1.34 4.872-1.36 4.694-1.378 4.522-1.362 4.348-1.379 4.177-1.551 2.447-.784 1.167 .552 .175 .741 .035 1.008-.008 1.245-.072 4.045-.833 6.847-1.588 9.646-2.349 10.473-2.573 10.424-2.451 10.187-3.336 9.891-4.439 9.595-5.542 9.29-6.645 9.182-7.034 9.167-7.042 8.774-6.94 7.935-6.722 7.098-6.489 6.26-6.262 3.101-5.408-.059-4.553-3.218-3.698-3.386-3.652-3.552-3.602-3.721-3.562-3.96-3.506-4.043-3.381-3.972-3.132-3.788-2.487-3.619-1.837-3.444-1.19-3.327-.758-3.215-.326-3.092 .104-2.957 .579-2.954 .572-2.489 .481-1.645 .313-.798 .153 0 0" fill="#1d1d1b"/>
<path transform="matrix(1,0,0,-1,328.4531,248.2919)" d="M0 0C2.729-1.194 5.457-2.388 8.185-3.581 8.344-3.65 8.501-3.725 8.663-3.79 8.86-3.869 8.923-3.995 8.835-4.197 8.355-5.289 7.877-6.383 7.401-7.477 7.316-7.671 7.194-7.72 6.989-7.65 6.5-7.483 6.004-7.332 5.51-7.178 5.449-7.16 5.379-7.167 5.315-7.163 5.335-7.232 5.335-7.317 5.378-7.368 5.996-8.106 6.238-8.967 6.244-9.917 6.248-10.556 5.988-11.449 5.626-12.007 5.465-12.256 5.365-12.55 5.181-12.778 4.222-13.967 2.991-14.689 1.463-14.86 .137-15.01-1.146-14.847-2.378-14.312-3.421-13.858-4.475-13.435-5.35-12.668-7.028-11.196-7.949-9.406-7.491-7.146-7.207-5.736-6.606-4.451-5.168-3.798-4.967-3.707-4.758-3.633-4.552-3.555-4.392-3.494-4.23-3.438-4.069-3.38-4.23-3.288-4.384-3.18-4.554-3.105-6.121-2.415-7.69-1.73-9.259-1.044-9.668-.865-10.075-.68-10.487-.508-10.704-.417-10.802-.303-10.693-.056-10.149 1.171-9.612 2.402-9.076 3.632-8.989 3.832-8.857 3.881-8.663 3.789-8.506 3.715-8.344 3.65-8.185 3.58-5.457 2.388-2.729 1.194 0 0M.82-5.453C-.226-4.995-1.274-4.542-2.317-4.079-3.203-3.687-4.078-3.785-4.889-4.232-5.62-4.636-5.855-5.229-5.523-6.126-5.457-6.308-5.333-6.471-5.22-6.632-4.564-7.565-3.658-8.237-2.677-8.74-1.094-9.549 .519-10.331 2.305-10.623 3.065-10.746 3.83-10.827 4.577-10.563 5.557-10.216 5.781-9.61 5.542-8.775 5.29-7.894 4.789-7.17 3.891-6.793 2.863-6.359 1.843-5.901 .82-5.453" fill="#1d1d1b"/>
<path transform="matrix(1,0,0,-1,341.5122,363.7778)" d="M0 0C1.011-1.318 2.899-1.535 4.217-.525 5.572 .515 5.835 2.38 4.824 3.698 3.84 4.98 1.972 5.212 .616 4.173-.703 3.162-.983 1.282 0 0M-5.576 128.165C-6.522 126.797-6.151 124.934-4.785 123.987-3.382 123.013-1.525 123.333-.578 124.7 .344 126.029-.008 127.88-1.412 128.853-2.779 129.801-4.654 129.493-5.576 128.165" fill="#1d1d1b"/>
</g>
</g>
</svg>
