<svg xmlns="http://www.w3.org/2000/svg" xmlns:xlink="http://www.w3.org/1999/xlink" xmlns:inkscape="http://www.inkscape.org/namespaces/inkscape" version="1.1" width="357.75" height="148.25" viewBox="255.75 223.00 357.75 148.25">
<defs>
<clipPath id="clip_1">
<path transform="matrix(1,0,0,-1,0,595.276)" d="M0 595.276H841.89V0H0Z"/>
</clipPath>
</defs>
<g inkscape:groupmode="layer" inkscape:label="Calque 1">
<g clip-path="url(#clip_1)">
<path transform="matrix(1,0,0,-1,284.8179,277.3046)" d="M0 0C-2.854 0-5.368-.785-7.541-2.353-9.715-3.922-11.225-5.992-12.074-8.563L-12.807-.81H-25.999V-61.255H-11.302V-37.996C-10.248-40.053-8.718-41.672-6.712-42.856-4.706-44.038-2.469-44.629 0-44.629 3.677-44.629 6.943-43.699 9.798-41.833 12.652-39.97 14.851-37.353 16.394-33.984 17.937-30.615 18.708-26.719 18.708-22.295 18.708-17.873 17.937-13.977 16.394-10.608 14.851-7.239 12.652-4.629 9.798-2.777 6.943-.926 3.677 0 0 0M-4.59-41.583C-6.005-41.583-7.316-40.959-8.525-39.711-9.734-38.464-10.66-36.813-11.302-34.754V-9.875C-10.557-7.818-9.58-6.172-8.371-4.937-7.162-3.703-5.902-3.086-4.59-3.086-2.225-3.086-.328-4.841 1.099-8.351 2.527-11.862 3.24-16.51 3.24-22.295 3.24-28.082 2.527-32.743 1.099-36.279-.328-39.815-2.225-41.583-4.59-41.583M42.277 11.534C42.277 13.848 41.525 15.7 40.021 17.088 38.516 18.477 36.555 19.171 34.138 19.171 31.695 19.171 29.727 18.477 28.236 17.088 26.745 15.7 25.999 13.848 25.999 11.534 25.999 9.219 26.738 7.348 28.217 5.921 29.696 4.494 31.669 3.78 34.138 3.78 36.607 3.78 38.58 4.494 40.059 5.921 41.538 7.348 42.277 9.219 42.277 11.534M41.467-.81H26.77V-43.859H41.467ZM79.542-.81 78.732-8.563C78.011-5.966 76.545-3.89 74.334-2.334 72.122-.778 69.564 0 66.658 0 62.98 0 59.734-.926 56.918-2.777 54.102-4.629 51.916-7.239 50.36-10.608 48.804-13.977 48.026-17.873 48.026-22.295 48.026-26.719 48.804-30.615 50.36-33.984 51.916-37.353 54.102-39.97 56.918-41.833 59.734-43.699 62.98-44.629 66.658-44.629 69.127-44.629 71.377-44.038 73.408-42.856 75.439-41.672 76.957-40.053 77.96-37.996V-45.44C77.96-49.863 76.712-53.418 74.218-56.106 71.724-58.792 68.394-60.137 64.228-60.137 62.016-60.137 59.72-59.726 57.342-58.903 54.963-58.08 52.964-57.013 51.344-55.701L50.765-56.587C52.719-58.208 55.207-59.52 58.229-60.523 61.251-61.526 64.214-62.027 67.121-62.027 72.187-62.027 76.655-61.21 80.525-59.578 84.395-57.945 87.385-55.656 89.494-52.711 91.602-49.767 92.657-46.339 92.657-42.432V-.81ZM71.248-41.583C68.934-41.583 67.063-39.815 65.636-36.279 64.208-32.743 63.495-28.082 63.495-22.295 63.495-16.51 64.208-11.862 65.636-8.351 67.063-4.841 68.934-3.086 71.248-3.086 72.662-3.086 73.987-3.703 75.221-4.937 76.456-6.172 77.368-7.818 77.96-9.875V-34.754C77.266-36.813 76.314-38.464 75.106-39.711 73.896-40.959 72.611-41.583 71.248-41.583M144.616-21.332V-21.023C144.616-16.857 143.709-13.199 141.897-10.049 140.083-6.899 137.531-4.436 134.24-2.662 130.948-.887 127.142 0 122.822 0 118.398 0 114.515-.926 111.172-2.777 107.829-4.629 105.251-7.239 103.438-10.608 101.625-13.977 100.719-17.873 100.719-22.295 100.719-26.719 101.664-30.615 103.554-33.984 105.444-37.353 108.131-39.97 111.616-41.833 115.1-43.699 119.105-44.629 123.632-44.629 127.206-44.629 130.678-44.071 134.047-42.952 137.416-41.833 140.103-40.323 142.109-38.419L141.646-37.687C139.897-39.179 137.917-40.329 135.706-41.139 133.494-41.949 131.437-42.354 129.534-42.354 126.911-42.354 124.583-41.525 122.552-39.866 120.52-38.208 118.951-35.868 117.846-32.846 116.74-29.825 116.187-26.308 116.187-22.295V-21.332ZM122.822-1.273C124.725-1.273 126.255-3.003 127.412-6.461 128.569-9.92 129.148-14.465 129.148-20.097H116.187C116.341-14.337 117.01-9.759 118.193-6.365 119.375-2.97 120.918-1.273 122.822-1.273M171.81 0C168.208 0 164.66-.579 161.163-1.736 157.665-2.893 154.811-4.423 152.6-6.326L153.14-7.059C154.939-5.619 156.984-4.469 159.273-3.607 161.561-2.745 163.708-2.314 165.714-2.314 168.826-2.314 171.327-3.356 173.218-5.439 175.108-7.522 176.053-10.325 176.053-13.848V-20.714H167.835C164.159-20.714 160.899-21.203 158.058-22.18 155.215-23.158 153.017-24.514 151.461-26.25 149.905-27.986 149.127-29.985 149.127-32.248 149.127-35.977 150.375-38.973 152.87-41.236 155.364-43.499 158.667-44.629 162.783-44.629 165.946-44.629 168.82-43.884 171.405-42.393 173.989-40.902 175.783-38.947 176.786-36.53L177.557-43.859H190.75V-14.697C190.75-11.765 189.958-9.194 188.376-6.982 186.795-4.771 184.571-3.054 181.704-1.832 178.835-.611 175.538 0 171.81 0M169.495-40.927C168.029-40.927 166.846-40.079 165.946-38.38 165.045-36.684 164.596-34.434 164.596-31.63 164.596-28.725 165.187-26.391 166.371-24.629 167.553-22.868 169.148-21.987 171.154-21.987H176.053V-35.025C175.332-36.8 174.375-38.227 173.179-39.307 171.983-40.387 170.754-40.927 169.495-40.927M216.284-11.071 215.551-.81H202.359V-43.859H217.056V-12.344C217.904-9.284 219.55-6.808 221.993-4.918 224.436-3.028 227.212-2.083 230.325-2.083V-.81C227.059-.81 224.134-1.742 221.548-3.607 218.964-5.472 217.209-7.96 216.284-11.071M260.145 17.744V-6.558C259.089-4.578 257.56-2.99 255.554-1.794 253.547-.598 251.311 0 248.841 0 245.164 0 241.917-.926 239.102-2.777 236.286-4.629 234.1-7.239 232.544-10.608 230.988-13.977 230.21-17.873 230.21-22.295 230.21-26.719 230.988-30.615 232.544-33.984 234.1-37.353 236.286-39.97 239.102-41.833 241.917-43.699 245.164-44.629 248.841-44.629 251.645-44.629 254.159-43.853 256.384-42.296 258.608-40.741 260.119-38.677 260.916-36.105L261.726-43.859H274.84V17.744ZM253.433-41.583C251.118-41.583 249.247-39.815 247.82-36.279 246.393-32.743 245.679-28.082 245.679-22.295 245.679-16.51 246.393-11.862 247.82-8.351 249.247-4.841 251.118-3.086 253.433-3.086 254.847-3.086 256.17-3.703 257.406-4.937 258.64-6.172 259.553-7.818 260.145-9.875V-34.754C259.45-36.813 258.499-38.464 257.29-39.711 256.081-40.959 254.794-41.583 253.433-41.583" fill="#1d1d1b"/>
<path transform="matrix(1,0,0,-1,489.6279,248.1029)" d="M0 0C.024-1.017 .496-2.025 1.416-3.025 2.325-4.012 3.285-4.572 4.295-4.704 5.288-4.829 6.187-4.521 6.993-3.779 7.749-3.083 8.174-2.349 8.267-1.578 8.358-.806 8.09-.08 7.463 .601L6.273-.494C6.578-.826 6.717-1.197 6.691-1.607 6.665-2.018 6.437-2.422 6.005-2.818 5.574-3.215 5.058-3.337 4.453-3.182 3.85-3.028 3.232-2.609 2.604-1.925 1.974-1.24 1.62-.575 1.545 .071 1.479 .669 1.659 1.163 2.084 1.555 2.396 1.842 2.748 1.984 3.139 1.98 3.529 1.976 3.921 1.86 4.314 1.634L5.297 2.936C4.649 3.402 3.982 3.613 3.295 3.569 2.945 3.547 2.591 3.455 2.233 3.293 1.874 3.13 1.508 2.877 1.133 2.532 .358 1.818-.02 .974 0 0M12.66 10.42C11.951 10.519 11.186 10.305 10.363 9.777L7.79 8.125 12.259 1.168 13.524 1.98 11.782 4.692 12.746 5.312 16.021 3.585 17.672 4.645 13.989 6.277C14.424 6.747 14.668 7.248 14.722 7.777 14.775 8.306 14.645 8.817 14.327 9.31 13.91 9.96 13.354 10.33 12.66 10.42M11.238 5.539 9.757 7.844 11.065 8.684C11.494 8.959 11.883 9.06 12.233 8.987 12.583 8.914 12.869 8.704 13.092 8.358 13.314 8.011 13.375 7.656 13.275 7.294 13.175 6.932 12.893 6.602 12.428 6.303ZM17.741 14.228 22.604 16.4 23.133 15.214 19.644 13.655 20.532 11.666 23.801 13.126 24.331 11.94 21.062 10.479 21.951 8.49 25.44 10.049 25.977 8.851 21.113 6.679ZM20.183 18.821 17.762 15.898 18.495 15.193 21.2 17.853ZM29.204 10.242 30.739 10.664 30.831 12.539 33.792 13.353 34.817 11.786 36.354 12.208 31.544 19.461 29.727 18.961ZM31.087 17.472 33.135 14.349 30.899 13.734ZM37.501 19.638 40.044 19.938 40.859 13.017 42.353 13.193 41.537 20.114 44.08 20.413 43.928 21.704 37.35 20.929ZM48.381 13.754 53.704 13.585 53.745 14.897 49.925 15.018 49.994 17.195 53.572 17.082 53.614 18.381 50.036 18.494 50.105 20.671 53.925 20.55 53.966 21.849 48.644 22.018ZM59.549 21.45 58.516 16.408C58.303 15.377 58.427 14.521 58.886 13.842 59.345 13.162 60.094 12.716 61.134 12.503 62.174 12.289 63.039 12.405 63.729 12.849 64.417 13.292 64.868 14.03 65.079 15.062L66.114 20.104 64.642 20.406 63.607 15.364C63.47 14.698 63.204 14.254 62.808 14.032 62.41 13.81 61.946 13.754 61.413 13.863 60.881 13.972 60.477 14.207 60.199 14.567 59.921 14.928 59.852 15.441 59.988 16.106L61.022 21.148ZM76.423 16.063C76.085 16.695 75.461 17.188 74.551 17.541L71.701 18.648 68.708 10.94 70.11 10.396 71.276 13.401 72.345 12.986 72.877 9.322 74.706 8.612 73.857 12.549C74.493 12.475 75.041 12.572 75.5 12.841 75.96 13.109 76.296 13.516 76.508 14.062 76.787 14.783 76.759 15.449 76.423 16.063M71.642 14.339 72.632 16.892 74.081 16.33C74.556 16.145 74.867 15.89 75.014 15.565 75.16 15.239 75.159 14.884 75.01 14.5 74.861 14.116 74.611 13.858 74.259 13.726 73.907 13.593 73.473 13.627 72.959 13.827ZM88.176 10.92 83.285 4.254 85.452 2.663C86.465 1.92 87.505 1.621 88.57 1.766 89.643 1.906 90.55 2.483 91.294 3.497 92.042 4.517 92.323 5.56 92.135 6.624 91.954 7.684 91.357 8.586 90.343 9.33ZM88.592 8.924 89.537 8.231C90.174 7.763 90.531 7.18 90.608 6.481 90.676 5.799 90.466 5.126 89.979 4.461 89.502 3.811 88.927 3.416 88.256 3.276 87.554 3.138 86.888 3.3 86.258 3.763L85.314 4.456ZM91.972-2.335 95.673-6.164 96.617-5.252 93.96-2.504 95.527-.99 98.016-3.564 98.949-2.661 96.461-.087 98.027 1.427 100.685-1.321 101.618-.418 97.917 3.411ZM111.251-14.842C111.385-14.138 111.21-13.362 110.725-12.515L109.202-9.863 102.03-13.978 102.778-15.282 105.574-13.678 106.146-14.672 104.256-17.856 105.232-19.558 107.046-15.962C107.495-16.419 107.982-16.688 108.508-16.768 109.033-16.848 109.551-16.742 110.06-16.451 110.729-16.066 111.126-15.53 111.251-14.842M106.447-13.177 108.823-11.814 109.596-13.162C109.851-13.604 109.933-13.998 109.841-14.343 109.751-14.689 109.527-14.964 109.169-15.169 108.813-15.374 108.455-15.418 108.098-15.299 107.741-15.181 107.426-14.882 107.151-14.403ZM107.019-23.13 108.942-28.096 110.165-27.622 108.785-24.058 110.816-23.271 112.109-26.609 113.321-26.139 112.028-22.801 114.06-22.014 115.44-25.578 116.652-25.109 114.729-20.143ZM111.369-37.283 111.604-38.484 115.779-37.669 115.148-34.431 114.198-34.616 114.517-36.449 114.466-36.459C113.857-36.577 113.344-36.496 112.926-36.214 112.518-35.939 112.261-35.534 112.157-35.001 112.035-34.376 112.196-33.825 112.641-33.349 113.09-32.863 113.736-32.538 114.578-32.374 115.47-32.2 116.225-32.274 116.841-32.595 117.446-32.901 117.809-33.362 117.928-33.979 118.061-34.655 117.815-35.282 117.192-35.862L117.837-37.307C118.489-36.877 118.93-36.374 119.159-35.797 119.388-35.22 119.429-34.552 119.281-33.794 119.063-32.676 118.506-31.838 117.609-31.277 116.683-30.696 115.569-30.533 114.269-30.786 113.035-31.027 112.088-31.566 111.43-32.404 110.791-33.212 110.571-34.125 110.77-35.142 110.963-36.134 111.581-36.71 112.625-36.87ZM112.324-41.831 112.353-43.423 114.146-43.977 114.2-47.047 112.427-47.652 112.455-49.244 120.674-46.385 120.642-44.5ZM118.861-45.449 115.327-46.658 115.286-44.34ZM119.225-59.234C119.757-58.756 120.087-58.033 120.213-57.063L120.608-54.032 112.409-52.964 112.215-54.455 115.411-54.871 115.263-56.008 111.832-57.397 111.578-59.344 115.2-57.58C115.279-58.216 115.504-58.725 115.874-59.106 116.244-59.489 116.72-59.718 117.301-59.794 118.067-59.894 118.708-59.708 119.225-59.234M116.409-55.001 119.126-55.354 118.925-56.896C118.859-57.401 118.686-57.765 118.404-57.984 118.122-58.205 117.777-58.289 117.369-58.234 116.96-58.182 116.65-58 116.438-57.689 116.227-57.38 116.155-56.951 116.228-56.403ZM118.761-65.633 110.858-63.202 110.068-65.771C109.698-66.972 109.756-68.052 110.244-69.011 110.729-69.977 111.571-70.646 112.772-71.015 113.982-71.387 115.06-71.31 116.003-70.783 116.945-70.264 117.601-69.403 117.97-68.203ZM117.012-66.681 116.667-67.802C116.436-68.557 116.001-69.085 115.366-69.387 114.744-69.676 114.039-69.699 113.252-69.457 112.481-69.219 111.919-68.807 111.567-68.218 111.206-67.601 111.142-66.918 111.37-66.172L111.715-65.051ZM110.111-81.454C110.836-81.731 111.504-81.742 112.114-81.482 112.725-81.224 113.238-80.679 113.656-79.848 114.073-79.017 114.218-78.265 114.09-77.593 113.975-76.936 113.608-76.453 112.994-76.144 112.47-75.88 111.984-75.826 111.536-75.98 111.087-76.136 110.61-76.442 110.104-76.9L108.785-78.078C108.5-78.343 108.25-78.513 108.038-78.586 107.825-78.66 107.587-78.631 107.326-78.499 107.064-78.368 106.922-78.13 106.9-77.786 106.878-77.441 106.945-77.115 107.102-76.804 107.258-76.493 107.41-76.255 107.559-76.093 108.034-75.543 108.576-75.42 109.184-75.726L109.853-74.394C109.033-74.02 108.26-74.007 107.534-74.354 106.876-74.661 106.341-75.224 105.929-76.044 105.464-76.969 105.301-77.781 105.44-78.478 105.579-79.176 105.982-79.691 106.65-80.027 107.136-80.271 107.614-80.327 108.086-80.192 108.558-80.059 109.036-79.771 109.523-79.333L110.956-78.042C111.211-77.8 111.437-77.64 111.632-77.562 111.828-77.484 112.036-77.501 112.256-77.611 112.477-77.723 112.609-77.925 112.656-78.22 112.703-78.514 112.629-78.854 112.436-79.242 112.038-80.031 111.487-80.324 110.781-80.122Z" fill="#1d1d1b"/>
<path transform="matrix(1,0,0,-1,496.417,342.9135)" d="M0 0-5.121-6.491-3.011-8.156C-2.024-8.936-.995-9.271 .074-9.162 1.151-9.06 2.078-8.515 2.856-7.527 3.64-6.534 3.957-5.502 3.807-4.432 3.663-3.366 3.097-2.443 2.11-1.665ZM.346-2.009 1.266-2.735C1.886-3.225 2.222-3.82 2.274-4.521 2.32-5.205 2.087-5.871 1.576-6.518 1.077-7.151 .489-7.526-.187-7.643-.894-7.755-1.553-7.57-2.166-7.086L-3.087-6.36ZM4.669-13.889 9.279-16.556 9.936-15.419 6.628-13.505 7.718-11.619 10.816-13.412 11.468-12.287 8.369-10.494 9.46-8.609 12.768-10.523 13.419-9.398 8.809-6.731ZM20.033-12.458 17.3-11.438 14.408-19.185 15.828-19.714 16.88-16.897 18.193-17.388C19.068-17.714 19.83-17.756 20.478-17.514 21.126-17.271 21.598-16.753 21.894-15.961 22.189-15.17 22.172-14.471 21.842-13.861 21.511-13.253 20.909-12.785 20.033-12.458M17.339-15.668 18.266-13.186 19.579-13.676C20.016-13.839 20.303-14.08 20.437-14.398 20.573-14.716 20.573-15.057 20.437-15.418 20.303-15.78 20.08-16.034 19.771-16.183 19.463-16.33 19.089-16.322 18.652-16.158ZM26.284-14.788 25.318-19.843C25.121-20.878 25.256-21.732 25.724-22.405 26.191-23.078 26.947-23.515 27.99-23.713 29.033-23.913 29.896-23.786 30.579-23.332 31.262-22.879 31.703-22.137 31.9-21.102L32.867-16.046 31.39-15.764 30.424-20.819C30.296-21.486 30.036-21.935 29.642-22.161 29.248-22.39 28.785-22.451 28.251-22.35 27.717-22.247 27.309-22.019 27.027-21.661 26.745-21.306 26.667-20.793 26.795-20.126L27.761-15.07ZM36.915-24.898 38.415-24.998 38.965-16.748 37.465-16.648ZM49.667-18.862C49.527-18.099 49.187-17.523 48.647-17.138 48.11-16.751 47.377-16.598 46.45-16.673 45.522-16.75 44.806-17.019 44.298-17.478 43.798-17.919 43.576-18.483 43.632-19.168 43.681-19.752 43.888-20.195 44.254-20.498 44.619-20.8 45.13-21.047 45.785-21.24L47.476-21.753C47.851-21.858 48.126-21.983 48.3-22.126 48.473-22.27 48.572-22.487 48.596-22.779 48.621-23.071 48.492-23.316 48.21-23.515 47.928-23.712 47.613-23.825 47.266-23.854 46.919-23.882 46.637-23.876 46.421-23.834 45.704-23.714 45.316-23.316 45.261-22.64L43.776-22.762C43.883-23.656 44.274-24.322 44.951-24.762 45.555-25.163 46.313-25.326 47.228-25.25 48.261-25.165 49.038-24.882 49.561-24.399 50.084-23.917 50.313-23.305 50.253-22.56 50.208-22.018 50.006-21.58 49.646-21.248 49.286-20.915 48.792-20.656 48.163-20.47L46.314-19.918C45.975-19.827 45.721-19.718 45.553-19.591 45.385-19.465 45.291-19.279 45.27-19.033 45.25-18.788 45.353-18.568 45.58-18.375 45.807-18.182 46.137-18.067 46.568-18.031 47.449-17.958 47.986-18.276 48.181-18.985ZM59.74-16.907C60.16-16.773 60.545-16.539 60.893-16.205L62.879-22.418 64.311-21.96 61.778-14.036 60.698-14.381C60.345-14.868 59.88-15.253 59.302-15.536ZM67.047-12.776C66.713-13.377 66.693-13.993 66.987-14.624 67.102-14.871 67.246-15.07 67.42-15.224 67.898-15.628 68.549-15.836 69.369-15.849 68.89-16.146 68.554-16.517 68.361-16.957 68.168-17.398 68.181-17.854 68.399-18.323 68.697-18.962 69.228-19.348 69.992-19.479 70.77-19.622 71.633-19.474 72.58-19.032 73.565-18.573 74.254-18.009 74.645-17.34 75.017-16.689 75.054-16.045 74.756-15.405 74.541-14.943 74.216-14.627 73.78-14.455 73.412-14.309 72.849-14.256 72.091-14.299 72.537-13.989 72.82-13.625 72.939-13.209 73.06-12.792 73.032-12.396 72.855-12.019 72.565-11.395 72.045-11.012 71.295-10.869 70.545-10.727 69.732-10.858 68.858-11.266 67.985-11.672 67.381-12.176 67.047-12.776M72.189-15.659C72.482-15.645 72.731-15.671 72.937-15.739 73.143-15.809 73.296-15.952 73.397-16.171 73.501-16.392 73.441-16.644 73.223-16.928 73.005-17.212 72.616-17.484 72.058-17.744 71.5-18.004 71.022-18.113 70.63-18.072 70.425-18.055 70.246-18.002 70.092-17.914 69.938-17.826 69.827-17.705 69.755-17.551 69.683-17.397 69.655-17.246 69.671-17.1 69.73-16.584 70.1-16.141 70.779-15.768ZM68.447-14.078C68.312-13.789 68.35-13.498 68.56-13.203 68.769-12.909 69.09-12.661 69.521-12.461 69.967-12.253 70.371-12.175 70.732-12.228 71.094-12.278 71.345-12.454 71.485-12.755 71.625-13.056 71.603-13.36 71.419-13.671 71.228-13.984 70.948-14.228 70.578-14.399L69.556-14.468C68.951-14.497 68.581-14.367 68.447-14.078M81.861-6.526C81.414-5.947 80.849-5.622 80.167-5.55 79.496-5.48 78.82-5.685 78.138-6.161 77.24-6.789 76.75-7.6 76.666-8.591 76.583-9.613 76.946-10.702 77.754-11.857 78.451-12.853 79.291-13.482 80.274-13.747 81.259-14.013 82.175-13.849 83.023-13.253 83.755-12.742 84.207-12.13 84.382-11.417 84.557-10.704 84.42-10.027 83.972-9.388 83.523-8.747 82.962-8.373 82.285-8.267 81.592-8.149 80.933-8.311 80.306-8.749 79.819-9.09 79.495-9.493 79.334-9.958 79.153-10.5 79.232-11.097 79.576-11.748 79.448-11.61 79.279-11.392 79.069-11.092 78.505-10.284 78.21-9.537 78.185-8.851 78.177-8.514 78.237-8.209 78.364-7.939 78.491-7.669 78.695-7.436 78.977-7.238 79.259-7.04 79.534-6.964 79.804-7.009 80.074-7.054 80.321-7.199 80.546-7.446ZM81.745-9.67C82.127-9.714 82.433-9.899 82.662-10.227 82.891-10.554 82.957-10.893 82.862-11.244 82.766-11.598 82.553-11.889 82.222-12.119 81.892-12.352 81.547-12.45 81.186-12.417 80.826-12.384 80.532-12.204 80.303-11.877 80.074-11.55 80.003-11.208 80.091-10.852 80.178-10.495 80.389-10.199 80.723-9.966 81.057-9.732 81.396-9.633 81.745-9.67M87.758-.579C88.074-.573 88.348-.693 88.582-.94 88.814-1.187 88.905-1.479 88.85-1.817 88.796-2.155 88.593-2.49 88.241-2.823L87.557-3.472 88.371-4.331 89.167-3.578C89.586-3.182 89.963-2.965 90.298-2.93 90.632-2.894 90.924-3.006 91.172-3.269 91.42-3.531 91.518-3.848 91.465-4.218 91.413-4.589 91.196-4.956 90.813-5.318 90.431-5.681 90.036-5.884 89.629-5.931 89.223-5.977 88.861-5.851 88.545-5.554L87.379-6.656C87.969-7.279 88.701-7.534 89.575-7.42 90.365-7.327 91.098-6.96 91.777-6.318 92.486-5.646 92.903-4.932 93.026-4.171 93.084-3.813 93.063-3.468 92.969-3.139 92.872-2.809 92.676-2.485 92.378-2.171 92.08-1.856 91.706-1.682 91.257-1.645 90.807-1.608 90.342-1.7 89.861-1.921 90.083-1.501 90.171-1.1 90.124-.716 90.078-.334 89.909 .012 89.617 .319 89.149 .813 88.551 1.014 87.822 .92 87.116 .837 86.434 .482 85.773-.143 85.132-.749 84.745-1.378 84.613-2.029 84.479-2.729 84.663-3.403 85.162-4.055L86.309-2.968C85.935-2.352 86.085-1.725 86.757-1.088 87.108-.755 87.441-.586 87.758-.579" fill="#1d1d1b"/>
<path transform="matrix(1,0,0,-1,595.9424,337.015)" d="M0 0C-.062 .31-.225 .549-.487 .719-.752 .889-1.038 .938-1.345 .866-1.652 .795-1.898 .616-2.083 .33-2.267 .045-2.325-.25-2.26-.554-2.193-.859-2.029-1.096-1.766-1.265-1.503-1.435-1.219-1.487-.915-1.421-.61-1.355-.366-1.179-.183-.893 .001-.607 .062-.31 0 0" fill="#1d1d1b"/>
</g>
</g>
</svg>
