<svg xmlns="http://www.w3.org/2000/svg" viewBox="7 8 723 243"><path d="M219 224.9h10.6v-2.1H219v-10.2h11.3v-2.1h-13.8v27.9h14.2v-2.1H219zM263.8 224.4l-6.2-13.9H255l7.5 16.7v11.2h2.5v-11.2l7.6-16.7h-2.7zM300.6 224.9h10.6v-2.1h-10.6v-10.2h11.3v-2.1h-13.8v27.9h14.2v-2.1h-11.7zM357.1 235h-.1l-4.7-24.5h-2.9l-4.8 24.5h-.1l-4.9-24.5h-2.5l5.9 27.9h3.2l4.6-24.5h.1l4.6 24.5h3.1l5.9-27.9H362zM393.1 224.9h10.6v-2.1h-10.6v-10.2h11.3v-2.1h-13.8v27.9h14.2v-2.1h-11.7zM437.4 210.5l-8.2 27.9h2.7l2.3-8.1h9.8l2.3 8.1h2.7l-8.2-27.9h-3.4zm-2.8 17.7l4.3-15.7h.1l4.3 15.7h-8.7zM489.6 231.2c-.1-4.3-1.3-6.3-4.8-6.6v-.1c3.7-.7 5-3.7 5-7.1 0-4.3-2.6-7-7.2-7h-8.3v27.9h2.5v-12.7h4.7c4.5 0 5.4 1.6 5.6 6.5l.1 2.3c0 1.5.2 2.9.7 3.9h2.9c-1-1.1-1.1-2.6-1.2-4.1v-3zm-8.5-7.7h-4.3v-10.9h4.6c4.5 0 6 2.1 6 5.5 0 3.6-2.3 5.4-6.3 5.4z"/><path d="M717.7 237.3c-2.5-7.6-.6-18.1.7-27.1 2.8-18.7 5.7-32.8 7-53.7.4-6.1 2.9-24.9-3.2-25.8-2.2-.3-5.4 3.1-7.3 4.8-6.9 6.2-13 13.5-19.2 17.3-2-8.7 2.8-22.7-3.2-27.9-13.8 7.2-20.4 23.7-30.7 32.8-.5-16.9 5.5-33.3 3.6-48.8-10.4 4.1-13.2 15.7-18.3 24.6-2.7 4.8-7.3 8.2-11.1 12-4 4-7.5 9.8-13.7 10.4-.3-13.6 4.6-24.5 7.9-35.7 3.3-11.2 5.4-23.1 11-33.1 12.8-3.8 31.3 1.4 45.5.1 5.5-.5 13-2 12.4-9.5-3.7-3.9-12.9-2.2-19.4-3.3 1-3.3 5.7-1.9 6.8-6.1 1-3.8-1-12.1-3.5-12.9-4.4-1.3-13.1 7.7-12.4 13.4.4 3.2 3.5 1.8 3 5.1-9-1-20.3.4-29.2-.7 3.4-10.3 8.4-21.3 11-31-6.1 4.1-11.1 8.4-14.5 15.1-3.5 6.9-4.2 15.4-8 22-2 3.5-5.9 5.1-6.8 9.1 0 .7 3.4-1 3.4.8-3.4 18.4-11 36.5-15.5 53.8-1.4 5.4-1.6 13.2-8.1 15.1-2.9-10.2 3.6-26.5.2-37.4-6.5 1.8-9.9 7.6-14.1 14.7-4.2 4.5-7.8 10-12.8 12.5.8-10.4 2.6-25.6-4.5-30.5-7.2 5.4-12.1 13.1-17.5 20.7-6.7 9.6-12.5 21.5-23 25.9-.3-3 .5-4.9.4-7.7 8.6-7.5 13.6-17.1 16.6-31 .7-3.2 2.6-11.6-.5-13.3-3.1-1.7-7.9 3-9.8 5.2-8.1 9.2-9.3 23-12.7 32.8-2.7 2.6-5.2 4.8-9 7.4-2.6 1.8-7.8 6.2-11.1 5.7-3.6-.5-7.2-11.2-6.1-15.9.5-2.1 5.7-6.9 8.1-9.5 14.6-16.3 23.6-35.6 28.7-65.1 1.7-9.7 5.1-20.7 2.4-30.5-9 2.8-14 11.8-19.2 19-5.4 7.5-10.5 15.6-14.5 24.1-8.7 21.6-15.8 41.8-17.5 63.3-3.6 4.8-9.3 10.8-18.1 13.8-7.7-8.9-3.1-26.5-.6-37.6 1.1-5.2 4.6-14.8 1.5-17.8-2.7-2.6-8.4.2-11.2 1.3-12.3 5-17.4 16.1-24.9 22.8-3.3-11.1 1.4-21.3-3.9-26.3-8.7 3-16.4 7.1-26.1 9.2-3.2 13.4-2.3 30.8-15.6 35.8-2.4-11.2 1.3-22.8 3.2-34 3.8-22.8 8.7-46.4 12.4-71.4 1.8-11.1 5.3-25.7-1.1-34.4h-.4c-13.3 3.6-19.1 21.6-25.1 34.5-13.9 31.4-32.5 67.4-49.3 89.7-1.4-11.8-2-20.7-2.8-29 13.2-16.6 28.8-38.6 22.9-69.3-10.7 1-21.7 5.5-31.7 10.1-18.4 8.4-36.2 18.6-32.8 45.3 4.4-1.1 7.7-3.2 11.1-5.2 1.6-13.5 12.5-20.1 23.5-22.9.1 1.3-.2 4.9-.1 8.2-.3 6.7.8 16.9.7 22.8-.6 3-7.3 9.1-10.7 12.5-4 4-8.3 8-11.5 11.7-5 5.7-12 12.6-16.2 18.6-1.8 2.5-2.5 5.6-4.2 7.8-2.6 3.2-9.7 9.2-14.6 11.7-7.9 4-25 10.8-23.7-4.1 4.8-8.8 20.9-21.7 12.2-34-13.4 3.7-16 18-19.6 31.5-3.6 2.4-7.6 9.3-13.4 9.5-2.9-6.2-1.1-17.6-1.9-26.6-.3-3-1.3-9.2-4.4-9.9-5.5-1.1-8.9 8.3-11.1 11.7-3.4 5.4-6.1 9.5-9.8 13.4.3-8.8 1.9-26.4-5.3-27.5-4.7-.7-9.3 7.4-12.4 11.2-5.7 7.1-11.7 12.2-14.9 19.4-1-11.7 3.2-27.8-3.2-34.8-7 1.8-10.4 8.8-14.5 13.8-4.3 5.3-8.7 10.6-12.4 15.1.6-7.1 1.7-11.9 2.9-19.8.6-4.4 3.5-17.5-1.8-18.5-4.2-.8-10.3 9.4-12.8 12.5-8.2 10.6-14.6 19.6-21.3 29.8-3.5 5.3-6.5 10.3-12.4 12.2 2.8-22.6 10.4-40 18.5-59.9 3.5-8.5 7.9-16.3 11-28.8 2.2-9 3.1-29.9-5.8-30.9-3.5-.4-5.9 3.5-10.7 4.4-1.9.3-3.8-.3-5.6 0-8.8 1.9-19.1 16.3-26.5 23.8-8.7 9-16.9 18.2-23.9 27.1-12.6 15.7-18.9 29.7-26.3 49.1-2.4 6.3-5.3 13-5.9 19.4-.4 4.7.1 10.8 1.4 12.9 7.4 11.8 23.6-6 30-10.5 10.7-7.6 22-15.5 30.3-24.7 4.6-5 7.4-11.1 12.4-14.7-2.1 7.6-4.2 15.6-6.3 23.7-2 6.6-5.1 13.8-2.4 22.1 11.9-2.7 18.8-12.2 25.2-20.1 6.6-9.5 12.4-20.1 20.9-27.6-.1 17.2-5.6 31.3-5.3 47.6 8.2-5.1 13.1-13.4 18.3-21.5 3.9-6.2 6.1-14.5 12.8-18.1 3.2 13.3-1.1 26.7-2.3 39.7 8.4-3.1 12.6-10.8 17.5-17.4 5.2-6.9 9.8-14.4 17.1-19 4.8 10-1.7 25.4.2 36.2 14-5 16.5-22.8 25.6-30.3 1.9 9.4-2.1 24.9 4.1 30.3 10.4.5 13.5-6 20.6-13.3.1 9.1 3.4 14.4 12.5 13.2 5.9-.7 13.5-5 19.7-8.3 7-3.7 13.2-9.6 16.8-12.6-1 11.8-.1 24.8 8.3 28.3 12 .2 18.7-6.6 25.3-12.2 6.1-5.2 11.8-9.5 17.5-15.9 2.7 10.8 5.7 21.7 12 29.1 9.4-3 13.3-17.2 10.1-28.4-3.3 1.9-3.4 9-8.5 8.6-.8-.1-1.8-.7-2.8-1.7-3.6-4.2-5.5-8.4-6.8-13.5 1-1.6 3.1-4.4 5.8-7.7 1-1.2 1.9-2.3 2.6-3.4 14.4-21.3 25.6-45.1 36.5-67.7 6.6-15.1 10.5-30.5 22.5-37.7-1.5 35.3-10.6 68.1-16.6 98.9-2.7 14.2-8.1 36 1.6 44.2 14.6-8.3 19.7-26.1 23.3-43.6 6.7-2.2 12-5.8 19.3-7.4 1.1 3.6-1.9 8.4-2.8 11.4-3.3 10.2-7.3 28.5-3.1 39.6 15.2-1.5 22.1-16 35.2-22.4-.3 8.7.8 16.9 3.8 22.3 13.2-.3 19.5-10.8 29.8-17.1 2 7.9 4.4 16.6 12.1 17.4 10.9 1.1 16.7-11.8 24.8-14.9-.7 5.9-.8 12 .5 14.4 9.9-1.8 16.5-8.9 21.8-15.6 5.6-7.1 9.3-16.1 16.2-20.7 2.4 13.1-5.4 24.1-2.3 36.5C572 171 575 162.7 580 157c5.1-5.8 10.5-11.2 15.4-18.5.2 10.7-4.5 28.9.7 35.1 6.6 1.5 10.1-3.7 13.7-6.5 3.9 10.6 10.6 2.4 15.5-3 8.9-9.4 19.8-20.6 26.9-27.2-.3 13.1-3.7 25.9-1.5 37.2 14.1-7.7 21.4-22.1 33.7-31.6.4 11.4-4.3 22.1-2.8 31.8 12.5-6 17.8-19.2 29.9-25.5 2.4 24.9-1.3 51-3.8 73.9-1 9.6-3.4 20.9.6 26.6 10.3-.2 16-4.9 18.8-12.6-3.4-1.3-5.9 1.2-9.4.6zM545.5 123c2.8 10-4.2 20.1-9.3 23.7 2.5-8.6 4.8-17.3 9.3-23.7zm-17.2-59.6c.4-.1.4.2.4.4-.4 14.7-4.4 32.3-8.6 43.9-4.1 11.3-8.8 22.6-17.8 29.3-.6-31.9 16.6-51.5 26-73.6zm-276.8 62.3c-2 7.4-4.8 14-10.2 18.1 2.2-7.1 3.8-15 10.2-18.1zM34.4 113.8C45.4 97.6 58.7 82 72.3 68 58 88.9 37.8 107.7 25.5 131.9c.8-6.8 5.2-12.7 8.9-18.1zm40.4 13.1c-10.8 12.1-18 20.3-32.4 30.3-5.1 3.5-14.4 12.2-20.5 10.4-4.3-1.2-5.3-11.8-3.1-18 2.8-8.2 11.6-17.6 17.4-25C48.4 108.9 62.3 93 73.6 77.5 79.5 69.4 88 59.4 98 57.1c4.1 2.7 9 10.2 7 18.4-.9 3.7-5.8 4.7-7.7 7.8-4.4 7.1-3.9 19-7.6 27.1-2.5 5.7-9.6 10.5-14.9 16.5zM325 61.7c4.7-3.8 12.3-6.9 18.9-7.4 3.1 4.8-2.8 14.6-6.3 19.8-3.7 5.6-8.3 9.9-11.3 14.2-.9-7.5-2-17.8-1.3-26.6zm-15.3 93.2c-7.2 5.7-18.1 15.9-25.7 4.6 10.9-18 24.5-33.3 38.9-47.9.4 4.7 2.2 17.7 3.5 27.8-3.2 4.4-11.9 11.7-16.7 15.5zm149.8-24.3c-1.1 5.6-1.3 11.4-3.9 14.6-2.9 3.6-8 5.9-11.6 8.6-4 3-7.8 6.7-12.9 7.3.1-8.3 2-16.5 6.7-22.6 1.3-1.7 3.8-2.7 5.2-4.5 1-1.2 1.1-2.9 2-4 1.3-1.7 12.3-12.8 15.3-12.2 4.8.8 0 9-.8 12.8z"/></svg>
