<?xml version="1.0" encoding="UTF-8"?>
<svg id="Groupe_3449" xmlns="http://www.w3.org/2000/svg" width="158.365" height="42.901" viewBox="0 0 158.365 42.901">
  <path id="Tracé_4751" data-name="Tracé 4751" d="M28.818,15.13a16.9,16.9,0,0,0-23.877,0A16.88,16.88,0,0,0,4.942,39,16.88,16.88,0,0,0,33.76,27.069,16.919,16.919,0,0,0,28.818,15.13M23.823,34A9.494,9.494,0,0,1,16.88,36.88,9.494,9.494,0,0,1,9.937,34a9.5,9.5,0,0,1-2.868-6.934,9.492,9.492,0,0,1,2.868-6.943,9.494,9.494,0,0,1,6.943-2.877,9.494,9.494,0,0,1,6.943,2.877,9.492,9.492,0,0,1,2.868,6.943A9.5,9.5,0,0,1,23.823,34" transform="translate(0 -1.083)" fill="#f5f5f5"/>
  <path id="Tracé_4752" data-name="Tracé 4752" d="M122.887,14.047a16.88,16.88,0,0,0-18.4-3.655,15.137,15.137,0,0,0-1.984.983l-1.376.8V0H99.252A5.2,5.2,0,0,0,94.06,5.2V26.486l.036.42a16.884,16.884,0,1,0,28.791-12.859m-5,18.873a9.614,9.614,0,0,1-3.172,2.154,9.9,9.9,0,0,1-3.762.724,9.809,9.809,0,0,1-9.821-9.812,9.812,9.812,0,1,1,19.623-.018,9.8,9.8,0,0,1-2.868,6.952" transform="translate(-10.009)" fill="#f5f5f5"/>
  <path id="Tracé_4753" data-name="Tracé 4753" d="M78.4,16.749V43.8h7.066V10.135h-.452A6.623,6.623,0,0,0,78.4,16.749" transform="translate(-8.342 -1.078)" fill="#f5f5f5"/>
  <path id="Tracé_4754" data-name="Tracé 4754" d="M137.355,16.749V43.8h7.06V10.135h-.446a6.619,6.619,0,0,0-6.614,6.614" transform="translate(-14.616 -1.078)" fill="#f5f5f5"/>
  <path id="Tracé_4755" data-name="Tracé 4755" d="M173.62,29.915a11.193,11.193,0,0,0-2.91-3.43,20.742,20.742,0,0,0-4.579-2.726c-.8-.366-1.541-.691-2.2-.966a21.208,21.208,0,0,1-3.1-1.467,2.607,2.607,0,0,1-.1-4.67,5.1,5.1,0,0,1,2.782-.734h.14a9.261,9.261,0,0,1,3.307.8,6.456,6.456,0,0,1,1.84,1.18l3.111-5.771a9.351,9.351,0,0,0-1.632-1.21,13.137,13.137,0,0,0-6.523-1.785h-.452a13.436,13.436,0,0,0-5.4,1.106,11.119,11.119,0,0,0-4.371,3.338,7.931,7.931,0,0,0-1.681,4.841v.434a7.553,7.553,0,0,0,.893,3.723,10.1,10.1,0,0,0,2.7,3.148,18.3,18.3,0,0,0,3.893,2.3q1.8.862,3.405,1.736a16.916,16.916,0,0,1,2.769,1.822,3.232,3.232,0,0,1,1.356,2.494,2.628,2.628,0,0,1-1.815,2.427,7.6,7.6,0,0,1-2.959.575h-.172a10.688,10.688,0,0,1-4.554-1.138,9.6,9.6,0,0,1-2.183-1.583l-3.245,6.064a12.211,12.211,0,0,0,2.274,1.534,17.237,17.237,0,0,0,7.495,1.877h.525a15.612,15.612,0,0,0,5.777-1.082,11.374,11.374,0,0,0,4.664-3.393,8.464,8.464,0,0,0,1.852-5.238l-.005-.288a8.467,8.467,0,0,0-.9-3.918" transform="translate(-16.159 -0.972)" fill="#f5f5f5"/>
  <path id="Tracé_4756" data-name="Tracé 4756" d="M60.939,10.375l-7.1,10.437-5.165-7.444a7.076,7.076,0,0,0-5.808-3.038H37.84L49.483,27.165,37.885,44h8.73l7.229-10.482,4.9,7.283a7.112,7.112,0,0,0,5.916,3.154H69.58L58.2,27.165,69.661,10.375Z" transform="translate(-4.027 -1.099)" fill="#f5f5f5"/>
</svg>