<?xml version="1.0" encoding="UTF-8"?>
<svg fill="none" height="18" viewbox="0 0 139 18" width="139" xmlns="http://www.w3.org/2000/svg">
<path d="M0 0.345886H4.00538L6.50269 9.32098C7.04642 11.2497 7.44212 13.5242 7.46702 14.9825H7.66487C7.73958 13.1285 8.06057 11.1749 8.5794 9.32098L11.0518 0.345886H14.1925L9.14804 17.6527H5.06795L0 0.345886Z" fill="black"></path>
<path d="M20.6938 0.345886V17.6527H16.936V0.345886H20.6938Z" fill="black"></path>
<path d="M24.1056 12.5848L27.4926 11.7685C27.6157 13.9932 28.7046 15.3035 30.6816 15.3035C32.0666 15.3035 33.0793 14.6366 33.0793 13.2766C33.0793 12.2375 32.4609 11.5208 31.2738 11.0518L28.1581 9.83982C26.0564 8.99862 24.6231 7.41722 24.6231 4.91991C24.6231 1.75573 26.9723 0 30.7301 0C34.4878 0 36.6392 1.60769 36.7624 4.79677L33.3505 5.51345C33.2025 3.63459 32.3115 2.74497 30.8532 2.69516C29.5181 2.64535 28.4555 3.23889 28.4555 4.57402C28.4555 5.63659 29.1238 6.35465 30.3095 6.84858L33.1029 7.96095C34.8337 8.65273 36.9602 9.88962 36.9602 12.8809C36.9602 16.1447 34.586 17.9986 30.582 17.9986C26.578 17.9986 24.179 16.0948 24.1042 12.5834L24.1056 12.5848Z" fill="black"></path>
<path d="M44.2556 0.345886V17.6527H40.4979V0.345886H44.2556Z" fill="black"></path>
<path d="M55.1345 0C59.8566 0 62.2792 2.99124 62.2792 9C62.2792 15.0088 59.8566 18 55.1345 18C50.4125 18 47.9899 15.0088 47.9899 9C47.9899 2.99124 50.436 0 55.1345 0ZM55.1345 15.2301C57.434 15.2301 58.3734 13.4246 58.3734 9C58.3734 4.5754 57.434 2.76987 55.1345 2.76987C52.8351 2.76987 51.9205 4.5505 51.9205 9C51.9205 13.4495 52.8351 15.2301 55.1345 15.2301Z" fill="black"></path>
<path d="M66.0369 0.345886H70.9568L74.7394 10.1373C75.2333 11.5471 75.7535 13.253 76.0496 15.1319H76.2724C75.9998 13.4509 75.9016 11.9677 75.9016 10.7557V0.345886H78.8679V17.6527H73.948L70.1903 7.93605C69.7199 6.57602 69.1512 4.82029 68.8303 2.94143H68.6324C68.8801 4.62244 69.0281 6.13051 69.0281 7.2927V17.6527H66.0369V0.345886Z" fill="black"></path>
<path d="M91.1318 13.574H86.0873L84.9251 17.6541H81.7845L86.9285 0.345886H91.1318L96.2993 17.6527H92.2939L91.1318 13.5726V13.574ZM90.44 11.1514L89.4757 7.73958C89.0301 6.1568 88.7092 4.40246 88.7092 2.86948H88.4864C88.3882 4.42736 88.1903 6.13328 87.7448 7.73958L86.7805 11.1514H90.44Z" fill="black"></path>
<path d="M112.223 17.6527H108.242C107.994 16.9859 107.846 16.0699 107.55 14.4387C107.031 11.4226 106.388 10.5081 104.559 10.5081H102.951V17.6527H99.1937V0.345886H105.795C109.182 0.345886 111.283 1.85396 111.283 4.895C111.283 7.56526 109.602 9.14804 106.684 9.14804H105.77V9.32098L106.759 9.39569C108.959 9.54373 110.566 9.79139 111.308 13.895C111.654 15.749 111.877 16.7631 112.223 17.6527ZM104.978 7.93605C106.536 7.93605 107.426 7.14466 107.426 5.43874C107.426 3.73282 106.511 2.99124 104.978 2.99124H102.951V7.93605H104.978Z" fill="black"></path>
<path d="M119.836 0.345886V17.6527H116.079V0.345886H119.836Z" fill="black"></path>
<path d="M131.21 0C135.933 0 138.355 2.99124 138.355 9C138.355 15.0088 135.933 18 131.21 18C126.488 18 124.066 15.0088 124.066 9C124.066 2.99124 126.512 0 131.21 0ZM131.21 15.2301C133.51 15.2301 134.449 13.4246 134.449 9C134.449 4.5754 133.51 2.76987 131.21 2.76987C128.911 2.76987 127.996 4.5505 127.996 9C127.996 13.4495 128.911 15.2301 131.21 15.2301Z" fill="black"></path>
</svg>